<svg id="Layer_1" enable-background="new 0 0 512.001 512.001" height="512" viewBox="0 0 512.001 512.001" width="512" xmlns="http://www.w3.org/2000/svg"><path d="m469.042 189.189c5.523 0 10-4.478 10-10v-46.188c0-3.572-1.906-6.874-5-8.66l-40-23.095c-4.781-2.76-10.898-1.122-13.66 3.66-2.762 4.783-1.123 10.898 3.66 13.66l25 14.434-30 17.32-153.042-88.358v-34.641l25 14.434c4.698 2.737 10.883 1.167 13.66-3.66 2.762-4.783 1.123-10.898-3.66-13.66l-40-23.095c-3.094-1.787-6.906-1.787-10 0l-40 23.095c-4.783 2.762-6.422 8.877-3.66 13.66 2.761 4.782 8.876 6.421 13.66 3.66l25-14.434v34.641l-153.042 88.36-30-17.321 25-14.434c11.227-7.091 1.742-23.497-10-17.32l-40 23.094c-3.094 1.786-5 5.088-5 8.66v46.188c.529 13.268 19.476 13.258 20 0v-28.868l30 17.32v176.719l-30 17.32v-28.867c-.529-13.268-19.476-13.258-20 0v46.187c0 3.572 1.906 6.874 5 8.66l40 23.095c4.698 2.737 10.883 1.167 13.66-3.66 2.762-4.783 1.123-10.898-3.66-13.66l-25-14.435 30-17.32 153.042 88.36v34.641l-25-14.434c-4.783-2.761-10.898-1.122-13.66 3.66-2.762 4.783-1.123 10.898 3.66 13.66l40 23.094c3.094 1.787 6.906 1.787 10 0l40-23.094c4.783-2.762 6.422-8.877 3.66-13.66-2.761-4.783-8.878-6.422-13.66-3.66l-25 14.434v-34.641l153.042-88.359 30 17.32-25 14.434c-4.783 2.762-6.422 8.877-3.66 13.66 2.777 4.827 8.962 6.397 13.66 3.66l40-23.095c3.094-1.786 5-5.088 5-8.66v-46.188c-.529-13.268-19.476-13.258-20 0v28.867l-30-17.32v-176.718l30-17.32v28.868c0 5.522 4.477 10 10 10zm-70-27.321-30 17.321-103.042-59.492v-34.641zm-143.042-24.851 93.043 53.719-93.043 53.718-93.043-53.718zm-103.042 178.476v-107.437l93.042 53.718v107.436zm113.042-53.719 93.042-53.718v107.437l-93.042 53.717zm-20-176.718v34.641l-103.042 59.492-30-17.321zm-143.042 94.133 30 17.321v118.983l-30 17.32zm10 170.944 30-17.32 103.042 59.491v34.642zm153.042 76.813v-34.642l103.042-59.491 30 17.32zm143.043-94.133-30-17.32v-118.984l30-17.321z"/></svg>