<svg xmlns="http://www.w3.org/2000/svg" width="865.573" height="658.55" viewBox="0 0 865.573 658.55">
  <g id="Grupo_26" data-name="Grupo 26" transform="translate(0 0)">
    <path id="Trazado_182" data-name="Trazado 182" d="M475.131,273.96a1.421,1.421,0,0,1-1.416-1.321,50.211,50.211,0,0,0-49.941-46.526c-1.515,0-3.106.077-4.729.229a1.42,1.42,0,0,1-1.365-.708,59.662,59.662,0,0,0-109.105,12.976,1.414,1.414,0,0,1-1.4,1.025l-.378-.011c-.2-.007-.393-.014-.591-.014a42.078,42.078,0,0,0-41,33.223,1.421,1.421,0,0,1-1.39,1.128H168.634a1.421,1.421,0,1,1,0-2.841h94.044a44.945,44.945,0,0,1,43.482-34.351,62.5,62.5,0,0,1,113.527-13.333c1.4-.109,2.768-.164,4.087-.164a53.062,53.062,0,0,1,52.775,49.169,1.421,1.421,0,0,1-1.318,1.517C475.2,273.959,475.164,273.96,475.131,273.96Z" transform="translate(-167.214 -120.725)" fill="#cbcbcb"/>
    <path id="Trazado_183" data-name="Trazado 183" d="M458.227,292.176h-233a1.421,1.421,0,0,1,0-2.841h233a1.421,1.421,0,0,1,0,2.841Z" transform="translate(-167.214 -120.725)" fill="#cbcbcb"/>
    <path id="Trazado_184" data-name="Trazado 184" d="M282.057,312.777h-78.14a1.421,1.421,0,1,1,0-2.841h78.14a1.421,1.421,0,0,1,0,2.841Z" transform="translate(-167.214 -120.725)" fill="#cbcbcb"/>
    <path id="Trazado_185" data-name="Trazado 185" d="M355.114,589.211c0,57.76-60.554,85.4-60.554,85.4s-61.176-27.638-62.418-85.4c-.73-33.95,27.528-61.486,61.486-61.486a61.486,61.486,0,0,1,61.486,61.486Z" transform="translate(-167.214 -120.725)" fill="#e5e5e5"/>
    <path id="Trazado_186" data-name="Trazado 186" d="M147.842,557.3H106.851l-4.969-19.874H152.81Z" fill="#cbcbcb"/>
    <rect id="Rectángulo_37" data-name="Rectángulo 37" width="38.196" height="19.905" transform="translate(108.248 591.288)" fill="#fff"/>
    <path id="Trazado_187" data-name="Trazado 187" d="M313.968,732.228H275.151V711.7h38.817Zm-38.2-.621h37.575V712.323H275.772Z" transform="translate(-167.214 -120.725)" fill="#cbcbcb"/>
    <path id="Trazado_188" data-name="Trazado 188" d="M135.176,559.643H119.517l-1.8-2.824h19.253Z" fill="#cbcbcb"/>
    <rect id="Rectángulo_38" data-name="Rectángulo 38" width="0.621" height="30.433" transform="translate(107.161 557.299)" fill="#cbcbcb"/>
    <rect id="Rectángulo_39" data-name="Rectángulo 39" width="0.621" height="30.433" transform="translate(146.91 557.299)" fill="#cbcbcb"/>
    <path id="Trazado_189" data-name="Trazado 189" d="M300.785,657.814l-.379-.492c17.942-13.836,39.33-37.54,39.33-71.89a61.092,61.092,0,0,0-37.363-56.368l.242-.572a61.712,61.712,0,0,1,37.742,56.94C340.357,620.034,318.838,643.892,300.785,657.814Z" transform="translate(-167.214 -120.725)" fill="#cbcbcb"/>
    <path id="Trazado_190" data-name="Trazado 190" d="M280.911,657.814l-.379-.492c17.942-13.836,39.33-37.54,39.33-71.89a61.164,61.164,0,0,0-36.938-56.187l.246-.57a61.784,61.784,0,0,1,37.313,56.757C320.483,620.034,298.963,643.893,280.911,657.814Z" transform="translate(-167.214 -120.725)" fill="#cbcbcb"/>
    <path id="Trazado_191" data-name="Trazado 191" d="M306.345,657.814c-18.052-13.921-39.572-37.779-39.572-72.382a61.784,61.784,0,0,1,37.313-56.757l.246.57a61.164,61.164,0,0,0-36.938,56.187c0,34.35,21.388,58.054,39.33,71.89Z" transform="translate(-167.214 -120.725)" fill="#cbcbcb"/>
    <path id="Trazado_192" data-name="Trazado 192" d="M286.471,657.814c-18.053-13.921-39.572-37.779-39.572-72.382a61.669,61.669,0,0,1,37.995-57.046l.239.573a61.049,61.049,0,0,0-37.613,56.473c0,34.35,21.388,58.054,39.33,71.89Z" transform="translate(-167.214 -120.725)" fill="#cbcbcb"/>
    <rect id="Rectángulo_40" data-name="Rectángulo 40" width="0.621" height="130.425" transform="translate(126.104 407)" fill="#cbcbcb"/>
    <line id="Línea_1" data-name="Línea 1" y1="11.389" x2="11.389" transform="translate(108.248 586.994)" fill="#fff"/>
    <rect id="Rectángulo_41" data-name="Rectángulo 41" width="16.106" height="0.621" transform="translate(108.032 598.165) rotate(-45)" fill="#cbcbcb"/>
    <line id="Línea_2" data-name="Línea 2" y1="17.803" x2="16.932" transform="translate(108.248 586.8)" fill="#fff"/>
    <rect id="Rectángulo_42" data-name="Rectángulo 42" width="24.569" height="0.621" transform="translate(108.028 604.392) rotate(-46.444)" fill="#cbcbcb"/>
    <rect id="Rectángulo_43" data-name="Rectángulo 43" width="46.58" height="5.59" transform="translate(103.435 586.8)" fill="#fff"/>
    <path id="Trazado_193" data-name="Trazado 193" d="M317.539,713.426h-47.2v-6.211h47.2Zm-46.58-.621h45.959v-4.969H270.959Z" transform="translate(-167.214 -120.725)" fill="#cbcbcb"/>
    <path id="Trazado_194" data-name="Trazado 194" d="M472.3,442.831c0,38.124-39.969,56.366-39.969,56.366s-40.379-18.242-41.2-56.366c-.482-22.409,18.17-40.583,40.583-40.583A40.584,40.584,0,0,1,472.3,442.831Z" transform="translate(-167.214 -120.725)" fill="#e5e5e5"/>
    <path id="Trazado_195" data-name="Trazado 195" d="M278.65,380.726H251.594l-3.279-13.118H281.93Z" fill="#cbcbcb"/>
    <rect id="Rectángulo_44" data-name="Rectángulo 44" width="25.211" height="13.138" transform="translate(252.517 403.16)" fill="#fff"/>
    <path id="Trazado_196" data-name="Trazado 196" d="M445.146,537.228H419.525V523.68h25.621Zm-25.211-.41h24.8V524.09h-24.8Z" transform="translate(-167.214 -120.725)" fill="#cbcbcb"/>
    <path id="Trazado_197" data-name="Trazado 197" d="M270.29,382.273H259.954l-1.186-1.864h12.708Z" fill="#cbcbcb"/>
    <rect id="Rectángulo_45" data-name="Rectángulo 45" width="0.41" height="20.087" transform="translate(251.799 380.726)" fill="#cbcbcb"/>
    <rect id="Rectángulo_46" data-name="Rectángulo 46" width="0.41" height="20.087" transform="translate(278.035 380.726)" fill="#cbcbcb"/>
    <path id="Trazado_198" data-name="Trazado 198" d="M436.445,488.111l-.25-.325c11.843-9.133,25.96-24.778,25.96-47.451a40.323,40.323,0,0,0-24.661-37.205l.16-.378a40.732,40.732,0,0,1,24.912,37.583C462.564,463.175,448.36,478.923,436.445,488.111Z" transform="translate(-167.214 -120.725)" fill="#cbcbcb"/>
    <path id="Trazado_199" data-name="Trazado 199" d="M423.327,488.112l-.25-.325c11.843-9.133,25.96-24.778,25.96-47.451a40.371,40.371,0,0,0-24.381-37.085l.163-.376a40.78,40.78,0,0,1,24.628,37.462C449.446,463.175,435.242,478.923,423.327,488.112Z" transform="translate(-167.214 -120.725)" fill="#cbcbcb"/>
    <path id="Trazado_200" data-name="Trazado 200" d="M440.115,488.111C428.2,478.922,414,463.175,414,440.336a40.78,40.78,0,0,1,24.628-37.462l.163.376a40.371,40.371,0,0,0-24.381,37.085c0,22.673,14.117,38.318,25.96,47.451Z" transform="translate(-167.214 -120.725)" fill="#cbcbcb"/>
    <path id="Trazado_201" data-name="Trazado 201" d="M427,488.111c-11.915-9.189-26.119-24.936-26.119-47.775a40.7,40.7,0,0,1,25.078-37.653l.158.378a40.3,40.3,0,0,0-24.826,37.275c0,22.673,14.117,38.318,25.96,47.451Z" transform="translate(-167.214 -120.725)" fill="#cbcbcb"/>
    <rect id="Rectángulo_47" data-name="Rectángulo 47" width="0.41" height="86.086" transform="translate(264.302 281.522)" fill="#cbcbcb"/>
    <line id="Línea_3" data-name="Línea 3" y1="7.517" x2="7.517" transform="translate(252.517 400.326)" fill="#fff"/>
    <rect id="Rectángulo_48" data-name="Rectángulo 48" width="10.631" height="0.41" transform="translate(252.375 407.698) rotate(-45)" fill="#cbcbcb"/>
    <line id="Línea_4" data-name="Línea 4" y1="11.751" x2="11.175" transform="translate(252.517 400.198)" fill="#fff"/>
    <rect id="Rectángulo_49" data-name="Rectángulo 49" width="16.216" height="0.41" transform="translate(252.372 411.808) rotate(-46.444)" fill="#cbcbcb"/>
    <rect id="Rectángulo_50" data-name="Rectángulo 50" width="30.745" height="3.689" transform="translate(249.34 400.198)" fill="#fff"/>
    <path id="Trazado_202" data-name="Trazado 202" d="M447.5,524.818H416.348v-4.1H447.5Zm-30.745-.41h30.335v-3.279H416.758Z" transform="translate(-167.214 -120.725)" fill="#cbcbcb"/>
    <path id="Trazado_203" data-name="Trazado 203" d="M812.075,494.953a1.018,1.018,0,0,0,1.015-.947,35.991,35.991,0,0,1,35.8-33.349c1.086,0,2.226.055,3.39.164a1.018,1.018,0,0,0,.979-.508,42.765,42.765,0,0,1,78.205,9.3,1.014,1.014,0,0,0,1,.735l.271-.008c.141,0,.282-.01.424-.01a30.161,30.161,0,0,1,29.391,23.814,1.018,1.018,0,0,0,1,.808h68.224a1.018,1.018,0,0,0,0-2.037H964.359a32.216,32.216,0,0,0-31.168-24.622,44.8,44.8,0,0,0-81.375-9.557c-1-.078-1.984-.117-2.929-.117a38.034,38.034,0,0,0-37.829,35.243,1.018,1.018,0,0,0,.945,1.087Z" transform="translate(-167.214 -120.725)" fill="#cbcbcb"/>
    <path id="Trazado_204" data-name="Trazado 204" d="M824.192,508.01H991.2a1.018,1.018,0,1,0,0-2.037H824.192a1.018,1.018,0,1,0,0,2.037Z" transform="translate(-167.214 -120.725)" fill="#cbcbcb"/>
    <path id="Trazado_205" data-name="Trazado 205" d="M950.468,522.777h56.01a1.018,1.018,0,1,0,0-2.037h-56.01a1.018,1.018,0,1,0,0,2.037Z" transform="translate(-167.214 -120.725)" fill="#cbcbcb"/>
    <path id="Trazado_206" data-name="Trazado 206" d="M522.992,647.768h-3.353l-1.595-12.929h4.948Z" fill="#9f616a"/>
    <path id="Trazado_207" data-name="Trazado 207" d="M691.06,771.743H680.252v-.137a4.212,4.212,0,0,1,4.207-4.207h6.6Z" transform="translate(-167.214 -120.725)" fill="#2f2e41"/>
    <path id="Trazado_208" data-name="Trazado 208" d="M566.219,641.416l-2.874,1.727-8.026-10.262,4.241-2.548Z" fill="#9f616a"/>
    <path id="Trazado_209" data-name="Trazado 209" d="M726.574,770.053l-.07-.117a4.212,4.212,0,0,1,1.44-5.773l5.659-3.4,2.237,3.723Z" transform="translate(-167.214 -120.725)" fill="#2f2e41"/>
    <path id="Trazado_210" data-name="Trazado 210" d="M691.077,765.825h-.058a45.008,45.008,0,0,1-4.88-.281c-.618-.061-1.288-.127-2.095-.194l-.028-.005c-.551-.164-.566-5.329-.333-23.011.12-9.056.255-19.321.094-25.858l0-.064.049-.042a24.575,24.575,0,0,1,21.623-5.49l.059.012.031.052c3.294,5.574,8.269,13.6,13.079,21.369,11.043,17.826,14.2,23.068,13.855,23.463l-.042.032c-.754.377-1.32.667-1.8.914a59.409,59.409,0,0,1-5.863,2.645l-.089.036-.065-.071c-11.2-12.278-20.529-25.993-26.3-38.672-.674,4.328-1.492,9.981-2.356,15.953-2.485,17.173-4.165,28.481-4.841,29.169Z" transform="translate(-167.214 -120.725)" fill="#2f2e41"/>
    <path id="Trazado_211" data-name="Trazado 211" d="M694.1,717.8a58.693,58.693,0,0,1,19.626,3.286,44.673,44.673,0,0,0-10.015-29.125l-.049-.059.025-.073c1.76-5.086,3.579-10.343,5.205-15.573l-.025-.088c-1.14-4.053-3.587-8.149-7.481-12.522a2.4,2.4,0,0,0-3.271-.166,30.476,30.476,0,0,0-9.821,24.81l0,.026-.008.026c-3.049,10.33-4.156,15.635-5.132,20.316-.712,3.415-1.329,6.372-2.568,10.6A63.622,63.622,0,0,1,694.1,717.8Z" transform="translate(-167.214 -120.725)" fill="#cbcbcb"/>
    <path id="Trazado_212" data-name="Trazado 212" d="M536.719,564.419,526.8,586.013l-5.667-5.736Z" opacity="0.1"/>
    <circle id="Elipse_45" data-name="Elipse 45" cx="7.057" cy="7.057" r="7.057" transform="translate(525.421 526.702)" fill="#9f616a"/>
    <path id="Trazado_213" data-name="Trazado 213" d="M691.135,650.5h11.206v-4.884c-2.459-.977-4.866-1.808-6.321,0a4.884,4.884,0,0,0-4.884,4.884Z" transform="translate(-167.214 -120.725)" fill="#2f2e41"/>
    <path id="Trazado_214" data-name="Trazado 214" d="M702.961,644.752c6.7,0,8.574,8.4,8.574,13.134,0,2.642-1.195,3.587-3.072,3.906l-.663-3.536-1.553,3.688c-.527,0-1.081-.008-1.656-.018l-.527-1.084-1.174,1.065c-4.7.007-8.5.693-8.5-4.021C694.387,653.149,696.032,644.752,702.961,644.752Z" transform="translate(-167.214 -120.725)" fill="#2f2e41"/>
    <path id="Trazado_215" data-name="Trazado 215" d="M905.3,318.725c0,186-195,275-195,275s-197-89-201-275c-2.351-109.327,88.648-198,198-198S905.3,209.373,905.3,318.725Z" transform="translate(-167.214 -120.725)" fill="#f88f51"/>
    <path id="Trazado_216" data-name="Trazado 216" d="M547.274,646.307h-4.111l-1.955-15.854h6.066Z" fill="#ffb7b7"/>
    <path id="Trazado_217" data-name="Trazado 217" d="M540.227,645.132h7.927v4.991H535.236a4.991,4.991,0,0,1,4.991-4.991Z" fill="#2f2e41"/>
    <path id="Trazado_218" data-name="Trazado 218" d="M562.7,646.307h-4.11l-1.956-15.854H562.7Z" fill="#ffb7b7"/>
    <path id="Trazado_219" data-name="Trazado 219" d="M555.65,645.132h7.927v4.991H550.659a4.991,4.991,0,0,1,4.991-4.991Z" fill="#2f2e41"/>
    <path id="Trazado_220" data-name="Trazado 220" d="M729.407,719.814a3.6,3.6,0,0,1-.691-5.479l-2.706-38.407,7.8.756.214,37.612a3.621,3.621,0,0,1-4.612,5.518Z" transform="translate(-167.214 -120.725)" fill="#ffb7b7"/>
    <path id="Trazado_221" data-name="Trazado 221" d="M714.293,759.045l-4.525-.216a1.508,1.508,0,0,1-1.437-1.5l-.316-45.783a1.509,1.509,0,0,1,1.725-1.5l18.1,2.628a1.5,1.5,0,0,1,1.292,1.482l2.328,42.422a1.509,1.509,0,0,1-1.509,1.52h-4.878a1.5,1.5,0,0,1-1.49-1.274S719.9,725,719.4,725.022s-3.533,32.695-3.533,32.695a1.515,1.515,0,0,1-1.5,1.33Z" transform="translate(-167.214 -120.725)" fill="#2f2e41"/>
    <path id="Trazado_222" data-name="Trazado 222" d="M727.774,688.833a1.5,1.5,0,0,1-.623-1.14l-.571-10.352a4.157,4.157,0,0,1,8.162-1.317l2.509,9.255a1.51,1.51,0,0,1-1.061,1.851l-7.138,1.935A1.5,1.5,0,0,1,727.774,688.833Z" transform="translate(-167.214 -120.725)" fill="#3f3d56"/>
    <circle id="Elipse_46" data-name="Elipse 46" cx="8.234" cy="8.234" r="8.234" transform="translate(545.659 527.037)" fill="#ffb7b7"/>
    <path id="Trazado_223" data-name="Trazado 223" d="M726.934,662.511a2.66,2.66,0,0,1-4.589-1.478,2.707,2.707,0,0,1,0-.522c.1-.99.675-1.889.538-2.935a1.539,1.539,0,0,0-.282-.72c-1.224-1.639-4.1.733-5.253-.751-.708-.91.124-2.343-.419-3.359-.717-1.342-2.843-.68-4.175-1.415-1.483-.818-1.394-3.093-.418-4.477a7.042,7.042,0,0,1,5.339-2.718,14.32,14.32,0,0,1,6.032,1.177,12.055,12.055,0,0,1,5.7,3.952,9.648,9.648,0,0,1,.975,8.215C729.887,659.143,728.188,661.175,726.934,662.511Z" transform="translate(-167.214 -120.725)" fill="#2f2e41"/>
    <path id="Trazado_224" data-name="Trazado 224" d="M729.326,669.731q-.215-.154-.438-.3a10.849,10.849,0,0,0-2.547-1.249v-2.164h-6.37v2.007a11.171,11.171,0,0,0-8.1,9.282l-4.338,32.2a1.5,1.5,0,0,0,.312,1.14,1.482,1.482,0,0,0,1.024.561,22.773,22.773,0,0,1,8.609,2.949,12.782,12.782,0,0,0,6.271,1.6,15.114,15.114,0,0,0,5.1-.909,1.5,1.5,0,0,0,.978-1.343c.156-3.466,1.07-21.3,3.729-32.185a11.123,11.123,0,0,0-4.236-11.591Z" transform="translate(-167.214 -120.725)" fill="#f88f51"/>
    <path id="Trazado_225" data-name="Trazado 225" d="M609.091,484h-132l-16-64h164Z" fill="#e5e5e5"/>
    <rect id="Rectángulo_51" data-name="Rectángulo 51" width="123" height="64.099" transform="translate(481.591 593.451)" fill="#fff"/>
    <path id="Trazado_226" data-name="Trazado 226" d="M772.8,779.275h-125v-66.1h125Zm-123-2h121v-62.1h-121Z" transform="translate(-167.214 -120.725)" fill="#3f3d56"/>
    <path id="Trazado_227" data-name="Trazado 227" d="M568.3,491.547H517.878l-5.787-9.094h62Z" fill="#3f3d56"/>
    <rect id="Rectángulo_52" data-name="Rectángulo 52" width="2" height="98" transform="translate(478.091 484)" fill="#3f3d56"/>
    <rect id="Rectángulo_53" data-name="Rectángulo 53" width="2" height="98" transform="translate(606.091 484)" fill="#3f3d56"/>
    <path id="Trazado_228" data-name="Trazado 228" d="M730.352,539.641l-1.221-1.584c57.778-44.556,126.652-120.888,126.652-231.5A196.73,196.73,0,0,0,735.464,125.035l.779-1.842a198.726,198.726,0,0,1,121.54,183.361C857.783,417.982,788.485,494.811,730.352,539.641Z" transform="translate(-167.214 -120.725)" fill="#3f3d56"/>
    <path id="Trazado_229" data-name="Trazado 229" d="M666.351,539.642l-1.221-1.584c57.778-44.556,126.653-120.888,126.653-231.5A196.962,196.962,0,0,0,672.834,125.62l.793-1.836a198.961,198.961,0,0,1,120.156,182.77C793.783,417.982,724.485,494.812,666.351,539.642Z" transform="translate(-167.214 -120.725)" fill="#3f3d56"/>
    <path id="Trazado_230" data-name="Trazado 230" d="M748.257,539.641c-58.133-44.83-127.431-121.659-127.431-233.087a198.96,198.96,0,0,1,120.158-182.77l.793,1.836A196.962,196.962,0,0,0,622.826,306.554c0,110.615,68.874,186.947,126.653,231.5Z" transform="translate(-167.214 -120.725)" fill="#3f3d56"/>
    <path id="Trazado_231" data-name="Trazado 231" d="M684.257,539.641c-58.133-44.83-127.431-121.658-127.431-233.087a198.588,198.588,0,0,1,122.352-183.7l.771,1.846A196.593,196.593,0,0,0,558.826,306.554c0,110.616,68.875,186.948,126.653,231.5Z" transform="translate(-167.214 -120.725)" fill="#3f3d56"/>
    <rect id="Rectángulo_54" data-name="Rectángulo 54" width="2" height="420" transform="translate(539.091)" fill="#3f3d56"/>
    <line id="Línea_5" data-name="Línea 5" y1="36.674" x2="36.674" transform="translate(481.591 579.625)" fill="#fff"/>
    <rect id="Rectángulo_55" data-name="Rectángulo 55" width="51.865" height="2" transform="translate(480.888 615.593) rotate(-45)" fill="#3f3d56"/>
    <line id="Línea_6" data-name="Línea 6" y1="57.331" x2="54.524" transform="translate(481.591 579)" fill="#fff"/>
    <rect id="Rectángulo_56" data-name="Rectángulo 56" width="79.118" height="2" transform="translate(480.874 635.645) rotate(-46.444)" fill="#3f3d56"/>
    <rect id="Rectángulo_57" data-name="Rectángulo 57" width="150" height="18" transform="translate(466.091 579)" fill="#fff"/>
    <path id="Trazado_232" data-name="Trazado 232" d="M784.3,718.725h-152v-20h152Zm-150-2h148v-16h-148Z" transform="translate(-167.214 -120.725)" fill="#3f3d56"/>
    <path id="Trazado_233" data-name="Trazado 233" d="M681.819,708.1a2.749,2.749,0,0,0,2.476-3.413l8.173-5.355-4.661-2.014-7.047,5.394a2.764,2.764,0,0,0,1.059,5.387Z" transform="translate(-167.214 -120.725)" fill="#9f616a"/>
    <path id="Trazado_234" data-name="Trazado 234" d="M689.683,704.24l-.1-.073c-1.945-1.432-4.1-2.912-6.193-4.344l-.125-.086.1-.116c4.457-5.215,8.919-10.662,13.235-15.931l-.008-.019.041-.021.017-.021.009.008.026-.013-.118.009-1.33-10.432a6.687,6.687,0,0,1,.143-7.165,5.675,5.675,0,0,1,7.384-1.686,4.846,4.846,0,0,1,2.128,3.619,4.37,4.37,0,0,1-1.158,3.578,150.491,150.491,0,0,1,.608,15.228v.048l-.029.039c-4.6,5.845-9.655,11.659-14.542,17.282Z" transform="translate(-167.214 -120.725)" fill="#cbcbcb"/>
    <path id="Trazado_235" data-name="Trazado 235" d="M691.267,672.174a3.541,3.541,0,0,1,.08.55l14.4,8.309,3.5-2.015,3.732,4.886-7.489,5.338-16.431-12.962a3.519,3.519,0,1,1,2.2-4.1Z" transform="translate(-167.214 -120.725)" fill="#ffb7b7"/>
    <path id="Trazado_236" data-name="Trazado 236" d="M706.263,680.326a1.5,1.5,0,0,1,.434-1.225l7.33-7.332a4.157,4.157,0,0,1,6.426,5.2l-5.22,8.044a1.51,1.51,0,0,1-2.087.444l-6.2-4.026a1.5,1.5,0,0,1-.679-1.107Z" transform="translate(-167.214 -120.725)" fill="#3f3d56"/>
    <path id="Trazado_237" data-name="Trazado 237" d="M606.534,608.953a1.018,1.018,0,0,1-1.015-.947,35.991,35.991,0,0,0-35.8-33.349c-1.086,0-2.226.055-3.39.164a1.018,1.018,0,0,1-.979-.508,42.765,42.765,0,0,0-78.2,9.3,1.014,1.014,0,0,1-1,.735l-.271-.008c-.141,0-.282-.01-.424-.01a30.161,30.161,0,0,0-29.391,23.814,1.018,1.018,0,0,1-1,.808H386.841a1.018,1.018,0,0,1,0-2.037H454.25a32.216,32.216,0,0,1,31.168-24.622,44.8,44.8,0,0,1,81.375-9.557c1-.078,1.984-.117,2.929-.117a38.034,38.034,0,0,1,37.829,35.243,1.018,1.018,0,0,1-.945,1.087Z" transform="translate(-167.214 -120.725)" fill="#cbcbcb"/>
    <path id="Trazado_238" data-name="Trazado 238" d="M594.417,622.01H427.407a1.018,1.018,0,1,1,0-2.037h167.01a1.018,1.018,0,1,1,0,2.037Z" transform="translate(-167.214 -120.725)" fill="#cbcbcb"/>
    <path id="Trazado_239" data-name="Trazado 239" d="M468.141,636.777h-56.01a1.018,1.018,0,1,1,0-2.037h56.01a1.018,1.018,0,1,1,0,2.037Z" transform="translate(-167.214 -120.725)" fill="#cbcbcb"/>
  </g>
</svg>
